<svg xmlns="http://www.w3.org/2000/svg" xmlns:xlink="http://www.w3.org/1999/xlink" width="200" height="200" class="icon" p-id="7469" t="1524650311729" version="1.1" viewBox="0 0 1024 1024"><defs><style type="text/css"/></defs><path d="M804 447.67v-25.116C804 375.098 765.385 336 717.928 336H280.927C233.471 336 195 375.098 195 422.554v184.13C195 654.141 233.471 693 280.927 693h437.001C765.385 693 804 654.141 804 606.684v-25.116c16-2.913 29-17.47 29-35.033v-63.832c0-17.563-13-32.12-29-35.033z" p-id="7470"/><path fill="#424242" d="M280.927 686C237.608 686 202 650.003 202 606.684v-184.13C202 379.236 237.608 344 280.927 344h437.001c43.32 0 79.072 35.236 79.072 78.554v31.309l5.871 1.062c13.535 2.357 23.129 14.04 23.129 27.778v63.832c0 13.738-9.593 25.421-23.129 27.778L797 575.375v31.309C797 650.003 761.248 686 717.928 686H280.927z" p-id="7471"/><path fill="#FFF" d="M280.927 670C245.73 670 217 641.882 217 606.684v-184.13C217 387.356 245.73 358 280.927 358h437.001C753.125 358 781 387.356 781 422.554v43.697l18.576 3.186c6.463 1.124 11.424 6.703 11.424 13.266v63.832c0 6.562-4.962 12.141-11.425 13.266L781 562.987v43.697C781 641.882 753.125 670 717.928 670H280.927z" p-id="7472"/><path fill="#424242" d="M750 603.629C750 622.612 734.612 638 715.629 638H283.371C264.388 638 249 622.612 249 603.629V427.371C249 408.388 264.388 393 283.371 393h432.258C734.612 393 750 408.388 750 427.371v176.258z" p-id="7473"/><path fill="#FBC939" d="M269 413h354v206H269z" p-id="7474"/></svg>