<?xml version="1.0" standalone="no"?><!DOCTYPE svg PUBLIC "-//W3C//DTD SVG 1.1//EN" "http://www.w3.org/Graphics/SVG/1.1/DTD/svg11.dtd"><svg t="1528343326539" class="icon" style="" viewBox="0 0 1024 1024" version="1.1" xmlns="http://www.w3.org/2000/svg" p-id="2500" xmlns:xlink="http://www.w3.org/1999/xlink" width="200" height="200"><defs><style type="text/css"></style></defs><path d="M955.791 497.514l-160.182-122.73c-3.644-3.689-8.796-6.006-14.419-6.006-11.292 0-20.425 9.156-20.425 20.469 0 5.646 2.295 10.752 5.983 14.464l82.644 70.767h-299.917v-299.985l70.745 82.644c3.734 3.712 8.796 6.006 14.509 6.006 11.247 0 20.425-9.156 20.425-20.469 0-5.623-2.34-10.775-6.028-14.464l-122.617-160.227c-3.757-3.712-8.863-5.983-14.509-5.983-5.602 0-10.73 2.295-14.441 5.983l-122.662 160.227c-3.689 3.689-5.961 8.818-5.961 14.464 0 11.315 9.11 20.469 20.425 20.469 5.647 0 10.775-2.295 14.486-6.006l70.722-82.644v299.985h-299.873l82.599-70.767c3.734-3.712 5.983-8.796 5.983-14.464 0-11.292-9.133-20.469-20.448-20.469-5.623 0-10.752 2.317-14.441 6.006l-160.16 122.73c-3.689 3.712-5.983 8.84-5.983 14.464 0 5.647 2.295 10.775 5.983 14.486l160.16 122.685c3.712 3.734 8.818 6.028 14.441 6.028 11.315 0 20.448-9.133 20.448-20.469 0-5.623-2.272-10.73-5.983-14.464l-82.599-70.745h299.85v299.985l-70.722-82.689c-3.712-3.689-8.84-5.983-14.486-5.983-11.292 0-20.425 9.177-20.425 20.469 0 5.669 2.272 10.775 5.961 14.464l122.662 160.227c3.712 3.689 8.84 5.983 14.441 5.983 5.669 0 10.775-2.295 14.509-5.983l122.618-160.227c3.734-3.689 6.028-8.796 6.028-14.464 0-11.292-9.177-20.469-20.425-20.469-5.714 0-10.775 2.295-14.509 5.983l-70.745 82.689v-299.985h299.895l-82.644 70.745c-3.689 3.734-5.983 8.84-5.983 14.464 0 11.337 9.133 20.469 20.425 20.469 5.623 0 10.775-2.295 14.419-6.028l160.182-122.685c3.689-3.712 5.983-8.818 5.983-14.486 0.023-5.623-2.249-10.752-5.939-14.464z" p-id="2501"></path></svg>