<?xml version="1.0" standalone="no"?><!DOCTYPE svg PUBLIC "-//W3C//DTD SVG 1.1//EN" "http://www.w3.org/Graphics/SVG/1.1/DTD/svg11.dtd"><svg t="1528343456519" class="icon" style="" viewBox="0 0 1024 1024" version="1.1" xmlns="http://www.w3.org/2000/svg" p-id="6706" xmlns:xlink="http://www.w3.org/1999/xlink" width="200" height="200"><defs><style type="text/css"></style></defs><path d="M730.607484 130.807742c-27.086452-27.020387-88.460387-35.806968-115.513807-8.753548L111.285677 625.895226c-27.086452 27.053419-27.086452 79.673806 0 106.694193l185.905549 185.971613c27.053419 27.020387 88.460387 27.020387 115.513806 0l503.808-503.841032a69.268645 69.268645 0 0 0 0-97.973677L730.607484 130.807742z m47.203097-55.956645l185.905548 185.905548a148.446968 148.446968 0 0 1 0 209.92L459.908129 974.517677a148.446968 148.446968 0 0 1-209.92 0l-185.938581-185.905548a148.446968 148.446968 0 0 1 0-209.953032L567.890581 74.851097a148.446968 148.446968 0 0 1 209.92 0z" fill="#707070" p-id="6707"></path><path d="M376.468645 596.133161L805.095226 167.473548a35.906065 35.906065 0 1 0-50.770581-50.77058h-0.033032L325.698065 545.329548l-70.391742-70.358709a35.906065 35.906065 0 1 0-50.770581 50.77058l305.317161 305.317162a35.906065 35.906065 0 1 0 50.770581-50.770581l-71.052387-71.085419L896.627613 302.146065a35.906065 35.906065 0 1 0-50.770581-50.803613L438.767484 658.432l-62.298839-62.298839z" fill="#707070" p-id="6708"></path></svg>