<?xml version="1.0" standalone="no"?><!DOCTYPE svg PUBLIC "-//W3C//DTD SVG 1.1//EN" "http://www.w3.org/Graphics/SVG/1.1/DTD/svg11.dtd"><svg t="1528343471869" class="icon" style="" viewBox="0 0 1024 1024" version="1.1" xmlns="http://www.w3.org/2000/svg" p-id="7363" xmlns:xlink="http://www.w3.org/1999/xlink" width="200" height="200"><defs><style type="text/css"></style></defs><path d="M871.104 864A351.36 351.36 0 0 0 544 640c-10.88 0-21.376 1.536-32 2.496V387.2c10.688-0.96 21.056-3.2 32-3.2a352 352 0 0 1 352 352 348.8 348.8 0 0 1-24.896 128z m-451.328-50.368L145.408 554.24a58.688 58.688 0 0 1 0-86.4l274.368-259.392c25.28-23.872 84.224-25.856 91.456 0v605.184c-11.264 21.888-66.176 23.872-91.456 0z" p-id="7364"></path></svg>