<?xml version="1.0" standalone="no"?><!DOCTYPE svg PUBLIC "-//W3C//DTD SVG 1.1//EN" "http://www.w3.org/Graphics/SVG/1.1/DTD/svg11.dtd"><svg t="1524650230467" class="icon" style="" viewBox="0 0 1024 1024" version="1.1" xmlns="http://www.w3.org/2000/svg" p-id="4384" xmlns:xlink="http://www.w3.org/1999/xlink" width="200" height="200"><defs><style type="text/css"></style></defs><path d="M576 134.4V64c0-32-32-64-64-64S448 32 448 64v70.4C198.4 160 0 345.6 0 576c0 249.6 230.4 448 512 448s512-198.4 512-448c0-230.4-198.4-416-448-441.6zM512 896c-211.2 0-384-140.8-384-320s172.8-320 384-320 384 140.8 384 320-172.8 320-384 320z" p-id="4385" fill="#d81e06"></path><path d="M672 384h-320C262.4 384 192 454.4 192 544S262.4 704 352 704h320c89.6 0 160-70.4 160-160S761.6 384 672 384z m-320 256C300.8 640 256 595.2 256 544S300.8 448 352 448 448 492.8 448 544 403.2 640 352 640z m320 0C620.8 640 576 595.2 576 544S620.8 448 672 448s96 44.8 96 96-44.8 96-96 96z" p-id="4386" fill="#d81e06"></path></svg>